PathFileType	4	(X/Y/Z)	SUBJ32_3_walk_RCNL2025.trc
DataRate	CameraRate	NumFrames	NumMarkers	Units	OrigDataRate	OrigDataStartFrame	OrigNumFrames
100	100	12	25	mm	100	295	393
Frame#	Time	R_Shoulder			L_Shoulder			C7			J_Notch			R_Elbow			L_Elbow			R_Wrist			L_Wrist			R_Asis			L_Asis			Sacral			Thoracic			Sternum			R_Thigh_Lateral			R_Knee_Lateral			R_Shank_Lateral			R_Ankle_Lateral			R_Heel			R_Toe			L_Thigh_Lateral			L_Knee_Lateral			L_Shank_Lateral			L_Ankle_Lateral			L_Heel			L_Toe		
		X1	Y1	Z1	X2	Y2	Z2	X3	Y3	Z3	X4	Y4	Z4	X5	Y5	Z5	X6	Y6	Z6	X7	Y7	Z7	X8	Y8	Z8	X9	Y9	Z9	X10	Y10	Z10	X11	Y11	Z11	X12	Y12	Z12	X13	Y13	Z13	X14	Y14	Z14	X15	Y15	Z15	X16	Y16	Z16	X17	Y17	Z17	X18	Y18	Z18	X19	Y19	Z19	X20	Y20	Z20	X21	Y21	Z21	X22	Y22	Z22	X23	Y23	Z23	X24	Y24	Z24	X25	Y25	Z25
295	2.94000000	1480.878296	1341.312256	6.538227	1433.358765	1328.225708	-359.595245	1449.136353	1417.676636	-166.457336	1553.629028	1298.561768	-181.676178	1453.201294	1020.031250	145.149918	1296.297485	1024.283813	-414.805237	1599.618835	817.200958	150.442619	1310.306702	763.163025	-420.327972	1506.642090	876.707458	-43.705078	1525.149780	863.783325	-295.514984	1318.824463	922.041382	-181.317169	1322.704956	1183.791260	-162.134018	1610.629517	1077.329102	-170.818878	1331.194336	536.197693	26.680323	1307.383545	440.370972	-20.600826	1243.828125	290.708466	44.073551	1148.912964	88.057930	-72.590225	1094.944336	96.910461	-122.935570	1266.506226	42.512630	-109.917175	1522.854248	528.275269	-397.144470	1562.350098	449.518036	-348.353424	1619.477539	238.447495	-384.118500	1692.432495	55.236626	-307.838531	1654.182373	32.613716	-252.010101	1827.462646	77.175835	-299.427277
296	2.95000000	1491.478760	1340.906738	4.097907	1444.409424	1326.900635	-362.096863	1459.728394	1416.842773	-169.183441	1564.691650	1297.987915	-184.070816	1462.738892	1019.851440	143.250748	1307.922363	1022.688171	-416.990631	1608.305115	816.472015	149.710510	1322.625427	761.605957	-422.274796	1518.425537	875.762451	-45.061573	1537.368286	863.362244	-296.806915	1330.792480	921.079041	-182.986786	1334.093628	1182.612671	-164.402374	1622.328247	1076.770142	-172.629562	1341.566406	536.052124	26.481735	1317.047119	440.350769	-20.452673	1251.118530	292.024506	44.731750	1151.272705	91.207870	-71.122261	1097.209473	101.806862	-121.052559	1267.083252	42.552940	-109.963074	1536.544067	528.827148	-398.414764	1574.217651	448.967590	-349.670074	1628.480103	236.676895	-384.299164	1697.541870	52.877106	-307.423309	1658.503540	31.810671	-251.943054	1832.754150	71.899857	-297.034088
297	2.96000000	1502.190186	1340.589966	1.626072	1455.579346	1325.634155	-364.635803	1470.435669	1416.165405	-171.957855	1575.864868	1297.548462	-186.498184	1472.178833	1019.724976	141.241562	1319.807251	1021.107361	-419.297333	1616.644104	815.618866	148.923248	1335.238770	760.071960	-424.421555	1530.455322	874.872437	-46.613575	1549.697266	863.294495	-298.254669	1342.885864	920.260193	-184.587524	1345.598877	1181.607544	-166.665176	1634.196167	1076.379028	-174.523529	1352.422607	535.846619	26.146318	1327.316650	440.308197	-20.390392	1258.868774	293.446747	45.312893	1153.994873	94.626144	-69.679474	1100.004150	107.156174	-119.229729	1267.803589	42.598248	-110.072990	1550.061279	529.791931	-399.717163	1585.765503	448.620300	-351.160980	1637.007080	235.063065	-384.518402	1701.735962	50.766941	-307.012054	1661.800293	31.588650	-251.922638	1837.286987	65.905655	-294.479645
298	2.97000000	1513.011841	1340.402954	-0.853852	1466.850830	1324.464355	-367.188782	1481.264771	1415.694702	-174.765182	1587.136108	1297.294922	-188.943314	1481.551147	1019.684387	139.126053	1331.965942	1019.565857	-421.705872	1624.641052	814.659027	148.076439	1348.144653	758.584076	-426.763580	1542.704102	874.098511	-48.358902	1562.072510	863.619812	-299.833740	1355.054443	919.664734	-186.089676	1357.203003	1180.842407	-168.887787	1646.218018	1076.213013	-176.506042	1363.786621	535.594055	25.652786	1338.259644	440.263000	-20.416706	1267.117188	295.020020	45.795742	1157.157471	98.367798	-68.326508	1103.467773	113.002266	-117.539474	1268.712891	42.643291	-110.229141	1563.135864	531.067932	-401.069458	1596.979004	448.545624	-352.836792	1645.348022	233.783966	-384.902222	1705.309570	49.085533	-306.684540	1664.429688	31.914955	-251.994217	1841.305786	59.700668	-292.038635
299	2.98000000	1523.941528	1340.395386	-3.316298	1478.205078	1323.436523	-369.731415	1492.218506	1415.476440	-177.585953	1598.491821	1297.278076	-191.388626	1490.887329	1019.772644	136.903320	1344.415771	1018.103088	-424.195312	1632.297729	813.620911	147.165382	1361.344360	757.178131	-429.296494	1555.133179	873.510071	-50.284492	1574.413208	864.358459	-301.528534	1367.241089	919.368042	-187.464172	1368.882568	1180.371338	-171.030594	1658.367554	1076.326904	-178.582977	1375.696045	535.306946	24.999105	1349.957031	440.236084	-20.514999	1275.923340	296.797577	46.178116	1160.869873	102.501801	-67.129570	1107.750488	119.377243	-116.037270	1269.843750	42.672569	-110.411392	1575.606812	532.568970	-402.516144	1607.936523	448.814575	-354.705444	1653.702393	232.959244	-385.565247	1708.414429	47.903885	-306.488617	1666.592529	32.649849	-252.192184	1844.891113	53.765095	-289.900970
300	2.99000000	1534.978271	1340.618652	-5.737391	1489.623413	1322.601440	-372.239777	1503.290771	1415.543579	-180.395676	1609.916382	1297.535400	-193.815720	1500.213989	1020.037598	134.569443	1357.171875	1016.769714	-426.743347	1639.610718	812.543579	146.185074	1374.842651	755.901855	-432.014236	1567.692017	873.172974	-52.363987	1586.638062	865.504028	-303.333740	1379.390747	919.416687	-188.689514	1380.607910	1180.227051	-173.057297	1670.606323	1076.762085	-180.755600	1388.198120	534.992920	24.207188	1362.496826	440.243439	-20.649811	1285.363892	298.832611	46.476147	1165.288208	107.107384	-66.136391	1113.008301	126.301796	-114.755745	1271.202515	42.665432	-110.618584	1587.439697	534.226074	-404.106842	1618.758057	449.460022	-356.758118	1662.106689	232.604599	-386.552460	1711.072998	47.194489	-306.415527	1668.362671	33.604404	-252.509384	1847.999512	48.467503	-288.146820
301	3.00000000	1546.125244	1341.118774	-8.097795	1501.087891	1322.012085	-374.691589	1514.464233	1415.910278	-183.166046	1621.392456	1298.081665	-196.206284	1509.547363	1020.523743	132.120819	1370.239014	1015.620605	-429.327057	1646.573914	811.473602	145.130920	1388.646912	754.809998	-434.907913	1580.319824	873.136841	-54.559959	1598.679443	867.018616	-305.249115	1391.458496	919.814514	-189.758499	1392.346191	1180.418579	-174.941879	1682.885498	1077.537598	-183.014297	1401.341919	534.650940	23.322006	1375.964233	440.293427	-20.773621	1295.526001	301.170685	46.718769	1170.610596	112.250420	-65.347473	1119.398682	133.785767	-113.707253	1272.780884	42.618141	-110.876038	1598.716064	535.987000	-405.872925	1629.524780	450.450684	-358.957306	1670.412842	232.632126	-387.812775	1713.262451	46.875584	-306.416992	1669.759644	34.606136	-252.905441	1850.565063	44.026623	-286.753723
302	3.01000000	1557.387695	1341.926758	-10.384490	1512.582886	1321.715210	-377.068817	1525.711182	1416.569092	-185.867950	1632.899780	1298.906738	-198.542511	1518.893066	1021.263611	129.558548	1383.605469	1014.706055	-431.924347	1653.184387	810.460327	144.000565	1402.765137	753.957336	-437.965729	1592.951172	873.426147	-56.829494	1610.492920	868.833435	-307.272522	1403.412476	920.524597	-190.684647	1404.065674	1180.931030	-176.674530	1695.147095	1078.643311	-185.334106	1415.172852	534.274353	22.405685	1390.430054	440.386780	-20.837103	1306.497314	303.840149	46.940083	1177.026611	117.951172	-64.717766	1127.068115	141.823029	-112.888161	1274.588013	42.566120	-111.214890	1609.561401	537.802368	-407.806824	1640.208374	451.690063	-361.236755	1678.360229	232.896118	-389.226562	1714.999878	46.847855	-306.442261	1670.808105	35.535885	-253.336441	1852.582886	40.522434	-285.633331
303	3.02000000	1568.765747	1343.049316	-12.591578	1524.095947	1321.742310	-379.359283	1536.994751	1417.490601	-188.474060	1644.413696	1299.978027	-200.807846	1528.245728	1022.271423	126.892624	1397.239990	1014.063782	-434.516144	1659.448547	809.548828	142.795822	1417.203369	753.390747	-441.172867	1605.522949	874.037415	-59.129234	1622.061401	870.856140	-309.394318	1415.233521	921.482361	-191.506134	1415.737427	1181.725464	-178.265625	1707.327148	1080.038696	-187.674515	1429.727051	533.856873	21.528061	1405.937012	440.515259	-20.799578	1318.355957	306.841034	47.171207	1184.656982	124.175423	-64.192139	1136.130859	150.385040	-112.280380	1276.675049	42.587906	-111.639473	1620.032104	539.598206	-409.850067	1650.662476	453.037964	-363.514618	1685.696289	233.248337	-390.657898	1716.354492	47.011749	-306.458160	1671.556763	36.331818	-253.768875	1854.119019	37.919792	-284.695007
304	3.03000000	1580.246460	1344.462524	-14.719161	1535.618286	1322.101929	-381.556580	1548.272339	1418.628052	-190.961014	1655.904785	1301.244507	-202.987656	1537.592163	1023.539551	124.144791	1411.092285	1013.712769	-437.089935	1665.387512	808.773315	141.523903	1431.964355	753.141449	-444.511566	1617.981079	874.940186	-61.418907	1633.391846	872.982788	-311.594177	1426.913574	922.612183	-192.282776	1427.336792	1182.744507	-179.745316	1719.363281	1081.655640	-189.985092	1445.024658	533.394409	20.754196	1422.486206	440.659729	-20.639027	1331.169312	310.135956	47.433456	1193.529663	130.846695	-63.736439	1146.645752	159.412125	-111.856415	1279.147705	42.796646	-112.112511	1630.051514	541.265625	-411.899994	1660.679810	454.343567	-365.710663	1692.256226	233.572693	-391.994080	1717.410522	47.277679	-306.446106	1672.070679	36.976887	-254.174637	1855.272949	36.099964	-283.891602
305	3.04000000	1591.799194	1346.111328	-16.770441	1547.145142	1322.776855	-383.659729	1559.499146	1419.925415	-193.311737	1667.342163	1302.645020	-205.069061	1546.913696	1025.038574	121.349205	1425.097534	1013.649719	-439.642731	1671.039246	808.151642	140.197174	1447.046997	753.219635	-447.961441	1630.282349	876.081238	-63.664848	1644.506348	875.111511	-313.840515	1438.452148	923.840759	-193.084702	1438.842407	1183.921631	-181.158081	1731.204834	1083.409180	-192.215240	1461.062256	532.884827	20.130207	1440.029419	440.791840	-20.360388	1344.999634	313.642059	47.733646	1203.598267	137.860748	-63.346527	1158.602661	168.801117	-111.591522	1282.174194	43.327248	-112.565758	1639.454590	542.689636	-413.837341	1670.069824	455.477051	-367.759369	1697.977539	233.793930	-393.160400	1718.242432	47.574238	-306.393036	1672.418701	37.483940	-254.525192	1856.144775	34.902325	-283.210388
306	3.05000000	1603.373779	1347.917480	-18.748695	1558.673950	1323.725952	-385.671661	1570.634033	1421.325684	-195.516296	1678.696167	1304.118408	-207.040421	1556.187500	1026.717529	118.548782	1439.185547	1013.849670	-442.180786	1676.456543	807.682922	138.831795	1462.446228	753.611908	-451.500763	1642.397827	877.391602	-65.842422	1655.431274	877.154419	-316.091705	1449.853149	925.107788	-193.975937	1450.237427	1185.193115	-182.553802	1742.819824	1085.211304	-194.324295	1477.804810	532.330688	19.670521	1458.472900	440.880493	-19.998259	1359.906738	317.225006	48.060055	1214.789429	145.098495	-63.043346	1171.925415	178.395279	-111.478142	1285.990234	44.314705	-112.921112	1648.099731	543.793091	-415.562195	1678.710938	456.350891	-369.615723	1702.890991	233.873077	-394.117584	1718.912598	47.852772	-306.288025	1672.664551	37.882587	-254.794022	1856.821411	34.160915	-282.639069
